<svg xmlns="http://www.w3.org/2000/svg" fill="#ec4a0a" viewBox="0 0 24 24" width="30" height="30">
  <path d="M22.23 0H1.77C.792 0 0 .774 0 1.729v20.542C0 23.226.792 
    24 1.77 24h20.46c.978 0 1.77-.774 
    1.77-1.729V1.729C24 .774 23.208 0 22.23 
    0zM7.06 20.452H3.56V9h3.5v11.452zM5.31 
    7.433a2.029 2.029 0 1 1 0-4.058 2.029 2.029 0 0 1 
    0 4.058zM20.452 20.452h-3.5v-5.569c0-1.328-.025-3.037-1.85-3.037-1.85 
    0-2.134 1.445-2.134 2.939v5.667h-3.5V9h3.36v1.561h.048c.468-.888 
    1.61-1.82 3.316-1.82 3.547 0 4.2 2.337 
    4.2 5.377v6.334z"/>
</svg>
