<svg xmlns="http://www.w3.org/2000/svg" fill="#ec4a0a" viewBox="0 0 24 24" width="30" height="30">
  <path d="M12 2.163c3.204 0 3.584.012 4.85.07 1.17.056 
    1.97.24 2.428.415a4.92 4.92 0 0 1 1.675 
    1.093 4.92 4.92 0 0 1 1.093 1.675c.175.458.359 
    1.258.415 2.428.058 1.266.07 1.645.07 
    4.85s-.012 3.584-.07 4.85c-.056 1.17-.24 
    1.97-.415 2.428a4.902 4.902 0 0 1-1.093 
    1.675 4.916 4.916 0 0 1-1.675 
    1.093c-.458.175-1.258.359-2.428.415-1.266.058-1.645.07-4.85.07s-3.584-.012-4.85-.07c-1.17-.056-1.97-.24-2.428-.415a4.902 
    4.902 0 0 1-1.675-1.093 4.916 4.916 0 0 1-1.093-1.675c-.175-.458-.359-1.258-.415-2.428C2.175 
    15.747 2.163 15.368 2.163 12s.012-3.584.07-4.85c.056-1.17.24-1.97.415-2.428a4.92 4.92 
    0 0 1 1.093-1.675 4.92 4.92 0 0 1 1.675-1.093c.458-.175 
    1.258-.359 2.428-.415C8.416 2.175 8.796 2.163 12 
    2.163zm0 1.838c-3.17 0-3.548.012-4.797.069-1.003.047-1.547.215-1.905.358-.48.186-.822.407-1.18.765a3.092 
    3.092 0 0 0-.765 1.18c-.143.358-.311.902-.358 
    1.905-.057 1.249-.069 1.627-.069 4.797s.012 
    3.548.069 4.797c.047 1.003.215 1.547.358 
    1.905.186.48.407.822.765 1.18.358.358.7.579 
    1.18.765.358.143.902.311 1.905.358 1.249.057 
    1.627.069 4.797.069s3.548-.012 4.797-.069c1.003-.047 
    1.547-.215 1.905-.358a3.092 3.092 0 0 0 
    1.18-.765 3.092 3.092 0 0 0 
    .765-1.18c.143-.358.311-.902.358-1.905.057-1.249.069-1.627.069-4.797s-.012-3.548-.069-4.797c-.047-1.003-.215-1.547-.358-1.905a3.092 
    3.092 0 0 0-.765-1.18 3.092 3.092 0 0 0-1.18-.765c-.358-.143-.902-.311-1.905-.358-1.249-.057-1.627-.069-4.797-.069zm0 
    4.838a5.999 5.999 0 1 1 0 12 5.999 5.999 0 0 1 0-12zm0 
    1.838a4.161 4.161 0 1 0 0 8.322 4.161 4.161 0 0 0 0-8.322zm6.406-3.272a1.44 
    1.44 0 1 1 0 2.88 1.44 1.44 0 0 1 0-2.88z"/>
</svg>
