<svg xmlns="http://www.w3.org/2000/svg" fill="#ec4a0a" viewBox="0 0 24 24" width="30" height="30">
  <path d="M23.954 4.569c-.885.389-1.83.654-2.825.775 
    1.014-.611 1.794-1.574 2.163-2.723-.951.555-2.005.959-3.127 1.184-.897-.957-2.178-1.555-3.594-1.555-3.179 
    0-5.515 2.966-4.797 6.045C7.728 8.087 4.1 6.128 1.671 
    3.149c-.35.602-.554 1.3-.554 2.042 0 1.41.721 
    2.656 1.823 3.384-.668-.021-1.296-.204-1.847-.513v.051c0 
    1.968 1.398 3.614 3.261 3.984-.34.093-.697.143-1.066.143-.261 
    0-.515-.025-.763-.072.516 1.604 2.011 2.771 
    3.778 2.804-1.39 1.087-3.144 1.733-5.045 
    1.733-.327 0-.653-.019-.975-.057 
    1.796 1.151 3.933 1.822 6.224 
    1.822 7.548 0 11.675-6.155 11.675-11.49 
    0-.175-.004-.35-.012-.523.8-.577 
    1.5-1.3 2.05-2.126z"/>
</svg>
